<svg id="Layer_1" data-name="Layer 1" xmlns="http://www.w3.org/2000/svg" viewBox="0 0 16 16"><defs><style>.cls-1{fill:#4ad1f9;}.cls-2{fill:#020303;}.cls-3{fill:#f07d20;}.cls-4{fill:#ce9878;}.cls-5{fill:#d09777;}.cls-6{fill:#f57d15;}.cls-7{fill:#f67c11;}.cls-8{fill:#fbfbfb;}.cls-9{fill:#eb7a1f;}.cls-10{fill:#ededed;}.cls-11{fill:#f4f4f4;}</style></defs><circle class="cls-1" cx="8" cy="8" r="7.91"/><path class="cls-2" d="M8.94,12.42a2,2,0,0,1-.55,0s0,0,0,0,0,0,0,0a.38.38,0,0,0,0-.15,1,1,0,0,0-1.45-.6,2.55,2.55,0,0,1-.46-2.26,1,1,0,0,0-.32-1c-.29-.28-.59-.57-.87-.87A1.05,1.05,0,0,1,5.35,6a.33.33,0,0,1,.49,0l.93.8c.05-.37.1-.71.15-1s.07-.58.13-.87A1.63,1.63,0,0,1,8.82,3.54,1.67,1.67,0,0,1,10.33,5c.21,1.53.43,3.07.65,4.6a2.39,2.39,0,0,1-.54,2A1,1,0,0,0,9,12.36s0,0,0,0Zm1-3.1a3,3,0,0,0-.4-1.5.93.93,0,0,0-1.69,0,3.1,3.1,0,0,0,0,3.09.93.93,0,0,0,1.69,0A3,3,0,0,0,9.93,9.32ZM9.55,5.87a1.58,1.58,0,0,0-1.73,0A1.11,1.11,0,0,0,9.55,5.87ZM9.48,5c0-.13-.09-.25-.25-.24A.23.23,0,0,0,9,5a.23.23,0,0,0,.26.26C9.41,5.29,9.47,5.17,9.48,5Zm-1.6.06c0,.12.08.23.24.22A.24.24,0,0,0,8.36,5c0-.14-.09-.26-.25-.25S7.88,4.89,7.88,5.08Z"/><path class="cls-3" d="M6.91,11.61a1,1,0,0,1,1.45.6.38.38,0,0,1,0,.15s0,0,0,0H6.53c0-.06,0-.11,0-.15A1,1,0,0,1,6.91,11.61Z"/><path class="cls-3" d="M9,12.36a1,1,0,0,1,1.46-.74,1,1,0,0,1,.39.54c-.08.07,0,.17,0,.25H9Z"/><path class="cls-4" d="M9,12.41h1.85s0,0,0,0H9l0,0,0,0Z"/><path class="cls-5" d="M6.53,12.41H8.38s0,0,0,0l-.06,0H6.48V12.4h0Z"/><path class="cls-6" d="M10.88,12.41h-.09c0-.09,0-.18,0-.25A.53.53,0,0,1,10.88,12.41Z"/><path class="cls-7" d="M6.53,12.41h0a.76.76,0,0,1,0-.15S6.53,12.35,6.53,12.41Z"/><path class="cls-8" d="M9.93,9.32a3,3,0,0,1-.4,1.52.93.93,0,0,1-1.69,0,3.1,3.1,0,0,1,0-3.09.93.93,0,0,1,1.69,0A3,3,0,0,1,9.93,9.32Z"/><path class="cls-9" d="M9.55,5.87a1.11,1.11,0,0,1-1.73,0A1.58,1.58,0,0,1,9.55,5.87Z"/><path class="cls-10" d="M9.48,5c0,.15-.07.27-.23.28S9,5.19,9,5a.23.23,0,0,1,.24-.26C9.39,4.77,9.45,4.89,9.48,5Z"/><path class="cls-11" d="M7.88,5.08c0-.19.07-.29.23-.3s.24.11.25.25a.24.24,0,0,1-.24.27C8,5.31,7.9,5.2,7.88,5.08Z"/><path class="cls-7" d="M8.38,12.4H8.33l0-.05S8.38,12.38,8.38,12.4Z"/><path class="cls-6" d="M9,12.41H9s0,0,0,0Z"/></svg>