<svg id="Layer_1" data-name="Layer 1" xmlns="http://www.w3.org/2000/svg" viewBox="0 0 16 16">
    <defs>
        <style>
            .cls-1 {
                fill: #fffcf7;
            }

            .cls-1,
            .cls-2 {
                fill-rule: evenodd;
            }

            .cls-2 {
                fill: #ff7900;
            }
        </style>
    </defs>
    <circle cx="8" cy="8" r="7.91" />
    <path class="cls-1"
        d="M7.16,6H4.29a.59.59,0,1,0,0,1.17H5.75L3.39,9.52a.59.59,0,0,0,0,.82.59.59,0,0,0,.83,0L6.58,8V9.45a.58.58,0,0,0,1.16,0V6.58A.58.58,0,0,0,7.16,6" />
    <path class="cls-2"
        d="M8.84,10h2.87a.59.59,0,1,0,0-1.17H10.25l2.36-2.36a.59.59,0,0,0,0-.82.59.59,0,0,0-.83,0L9.42,8V6.55a.58.58,0,1,0-1.16,0V9.42a.58.58,0,0,0,.58.59" />
</svg>