<svg id="Layer_1" data-name="Layer 1" xmlns="http://www.w3.org/2000/svg" viewBox="0 0 16 16">
    <defs>
        <style>
            rect {
                fill: #123463;
            }

            path {
                fill: #fffcf7;
            }

            @media (prefers-color-scheme: dark) {
                rect {
                    fill: #fffcf7;
                }

                path {
                    fill: #123463;
                }
            }
        </style>
    </defs>
    <rect width="16" height="16" rx="3" />
    <g id="nomade-icon">
        <path
            d="M3.88,8.28A4.41,4.41,0,0,1,5.59,3.44a4.28,4.28,0,0,1,5.81,1c.11.16.42.58.21.53C6.49,3.5,4.93,6.83,4.42,8.28a.28.28,0,0,1-.53,0Z" />
        <path class="cls-2"
            d="M5.53,8.24A4.61,4.61,0,0,1,10,7.83c1,.45,1.11.73.59,1.67s-1.8,2.23-2.5,2A5.77,5.77,0,0,1,5.38,8.93a.53.53,0,0,1,.15-.69Z" />
        <path class="cls-2"
            d="M4.65,9.87a.22.22,0,0,1,.21-.23.24.24,0,0,1,.19.1,7.88,7.88,0,0,0,2,2.13.22.22,0,0,1-.12.39,2.15,2.15,0,0,1-1.31-.44A2.68,2.68,0,0,1,4.65,9.87Z" />
        <path class="cls-2"
            d="M11.59,10.06a4.8,4.8,0,0,1-1.74,2.78,3.33,3.33,0,0,1-3.17.1h0a.1.1,0,0,1,0-.13.09.09,0,0,1,.09-.05,5.46,5.46,0,0,0,.57,0,5.09,5.09,0,0,0,1.89-.67A6.3,6.3,0,0,0,11.28,10l0,0a.16.16,0,0,1,.23,0A.18.18,0,0,1,11.59,10.06Z" />
        <path class="cls-2"
            d="M12,8.4A5.51,5.51,0,0,0,5.94,7.16a.16.16,0,0,1-.19-.25C7,5.42,9,4.83,11.78,5.6,12.38,5.76,12.47,8.82,12,8.4Z" />
    </g>
</svg>