<?xml version="1.0" standalone="no"?>
<!DOCTYPE svg PUBLIC "-//W3C//DTD SVG 20010904//EN" "http://www.w3.org/TR/2001/REC-SVG-20010904/DTD/svg10.dtd">
<svg version="1.0" xmlns="http://www.w3.org/2000/svg" width="700.000000pt" height="700.000000pt"
        viewBox="0 0 700.000000 700.000000" preserveAspectRatio="xMidYMid meet">
        <metadata>
                Created by Nomade Finance, written by XYHOMi3 Oct 27th 2023
        </metadata>

        
        <g transform="translate(0.000000,700.000000) scale(0.100000,-0.100000)" stroke="none">
                <path d="M3378 5765 c-2 -2 -34 -6 -73 -9 -323 -29 -681 -172 -935 -374 -74
-59 -208 -192 -270 -267 -282 -345 -439 -769 -444 -1200 -2 -153 9 -249 45
-402 42 -178 85 -229 178 -208 49 11 75 48 131 192 213 552 541 959 966 1202
55 31 128 69 164 85 36 15 74 31 85 36 52 24 259 85 325 96 14 3 50 9 80 14
30 5 69 12 85 15 104 19 428 25 580 11 111 -10 226 -24 320 -41 44 -8 94 -17
110 -20 17 -2 101 -22 188 -44 127 -31 160 -36 164 -25 6 17 -49 116 -120 215
-78 109 -91 123 -197 229 -264 265 -642 440 -1045 486 -58 6 -332 13 -337 9z" />
                <path d="M4117 4674 c-1 -1 -60 -4 -132 -7 -418 -18 -807 -149 -1111 -374 -94
-70 -319 -290 -343 -335 -18 -34 -8 -73 24 -94 24 -16 30 -15 133 24 145 55
315 103 422 118 19 3 58 9 85 14 190 35 533 28 755 -15 138 -27 342 -87 425
-125 11 -5 56 -24 100 -44 91 -40 208 -100 247 -127 14 -11 29 -19 32 -19 7 0
18 -7 151 -101 106 -75 99 -69 237 -186 60 -51 112 -93 117 -93 4 0 17 10 28
23 49 53 68 265 50 547 -4 58 -9 116 -12 129 -2 14 -7 47 -10 75 -14 118 -68
300 -110 366 -42 65 -62 76 -220 113 -82 20 -166 38 -185 41 -19 3 -46 8 -60
11 -14 3 -41 8 -60 11 -19 3 -45 7 -56 9 -12 2 -48 6 -80 10 -33 4 -70 9 -84
11 -36 5 -338 21 -343 18z" />
                <path d="M3467 3734 c-1 -1 -46 -4 -100 -8 -293 -18 -627 -133 -884 -303 -94
-62 -135 -129 -135 -219 0 -59 49 -149 206 -372 262 -375 540 -636 821 -772
132 -63 163 -73 232 -71 57 1 158 32 213 65 19 12 47 28 63 36 49 25 229 174
320 265 239 239 431 518 501 727 32 96 34 171 5 233 -84 178 -556 370 -1009
410 -65 6 -229 12 -233 9z" />
                <path d="M2134 2793 c-36 -7 -67 -48 -67 -90 -1 -133 43 -301 118 -455 110
-222 263 -382 462 -482 97 -48 262 -88 368 -88 66 0 71 1 99 27 19 18 26 34
26 63 0 44 -8 53 -145 158 -49 37 -92 71 -95 75 -3 4 -25 23 -50 44 -97 79
-258 245 -394 405 -36 42 -161 212 -201 272 -24 37 -47 60 -67 67 -17 6 -31
10 -32 10 -1 -1 -11 -4 -22 -6z" />
                <path d="M4943 2689 c-12 -4 -50 -50 -84 -101 -196 -292 -477 -582 -722 -744
-371 -246 -758 -371 -1184 -383 -28 -1 -47 -34 -34 -59 15 -27 264 -118 379
-138 15 -3 34 -7 42 -9 63 -17 309 -25 412 -12 570 68 966 443 1214 1149 19
57 37 110 39 118 2 8 10 37 19 63 10 35 12 56 5 77 -14 38 -47 54 -86 39z" />
        </g>
</svg>