<?xml version="1.0" encoding="utf-8"?>
<!-- Generator: Adobe Illustrator 25.4.1, SVG Export Plug-In . SVG Version: 6.00 Build 0)  -->
<!DOCTYPE svg PUBLIC "-//W3C//DTD SVG 1.1 Tiny//EN" "http://www.w3.org/Graphics/SVG/1.1/DTD/svg11-tiny.dtd" [ <!ENTITY
	ns_extend "http://ns.adobe.com/Extensibility/1.0/">
<!ENTITY ns_ai "http://ns.adobe.com/AdobeIllustrator/10.0/">
	<!ENTITY ns_graphs "http://ns.adobe.com/Graphs/1.0/">
		<!ENTITY ns_vars "http://ns.adobe.com/Variables/1.0/">
			<!ENTITY ns_imrep "http://ns.adobe.com/ImageReplacement/1.0/">
				<!ENTITY ns_sfw "http://ns.adobe.com/SaveForWeb/1.0/">
					<!ENTITY ns_custom "http://ns.adobe.com/GenericCustomNamespace/1.0/">
						<!ENTITY ns_adobe_xpath "http://ns.adobe.com/XPath/1.0/">
							]>
							<svg version="1.1" baseProfile="tiny" id="Layer_1" xmlns:x="&ns_extend;" xmlns:i="&ns_ai;"
								xmlns:graph="&ns_graphs;" xmlns="http://www.w3.org/2000/svg"
								xmlns:xlink="http://www.w3.org/1999/xlink" x="0px" y="0px" width="646.7px"
								height="194px" viewBox="0 0 646.7 194" overflow="visible" xml:space="preserve">
								<metadata>
									<sfw xmlns="&ns_sfw;">
										<slices></slices>
										<sliceSourceBounds bottomLeftOrigin="true" height="194" width="646.7" x="0"
											y="0"></sliceSourceBounds>
									</sfw>
								</metadata>
								<g>
									<path fill="#FFFCF7" d="M3.6,102.1C-6.8,72,6,33.2,34.8,13.4C68.9-10,118.9-1.8,141.3,31c2,3,7.8,10.8,4,9.7
		c-94.1-26.2-122.6,34.8-132,61.4c-0.9,2.7-3.9,4.1-6.6,3.2C5.2,104.7,4.1,103.6,3.6,102.1z M33.8,101.4
		c12.2-8.7,40.9-23.1,81.5-7.6c18.5,8.2,20.5,13.4,10.9,30.6c-8.5,15.2-32.9,40.9-45.8,36.8C56.8,153.8,38.7,127,31.1,114
		C28.6,109.7,29.7,104.3,33.8,101.4z M17.5,131.2c0-2.2,1.8-4,4-4c1.3,0,2.6,0.7,3.3,1.8c9.8,15.2,22.4,28.4,37.1,38.9
		c1.8,1.3,2.1,3.8,0.8,5.6c-0.7,0.9-1.8,1.5-2.9,1.6c-8.7,0-17.2-2.8-24.2-8C26,159.7,18,145.3,17.5,131.2z M144.7,134.7
		c-4.6,16.8-13.9,39.8-31.8,50.9s-39.4,10.6-58.1,1.9h-0.1c-0.9-0.4-1.3-1.4-0.9-2.3c0.3-0.6,0.9-1.1,1.6-1c3.5,0,7-0.3,10.5-0.8
		c12.3-1.7,24-5.9,34.7-12.2c15.7-9.3,28.4-22.8,38.2-38.1l0.5-0.7c1-1.3,2.9-1.6,4.2-0.7C144.5,132.4,144.9,133.6,144.7,134.7z
		 M152.8,104.3C108.6,62.8,61.5,72.7,41.2,81.6c-1.5,0.7-3.2,0-3.8-1.5c-0.4-1-0.3-2.1,0.4-3c22-27.4,58.6-38.1,110.6-24.2
		C159.3,55.8,160.9,112,152.8,104.3L152.8,104.3z" />
									<g>
										<g>
											<path fill="#FFFCF7"
												d="M260,102h-2.5L213.9,52v50h-8.3V33.1h2.4L252,83.7V33.1h8V102z" />
											<path fill="#FFFCF7" d="M312.8,31.4c6.5-0.1,12.9,1.6,18.5,4.8c5.5,3.1,10.2,7.6,13.3,13.1c6.4,11.3,6.4,25.1,0,36.4
				c-3.1,5.5-7.7,10.1-13.2,13.2c-5.5,3.2-11.8,4.8-18.2,4.8c-6.4,0-12.7-1.6-18.3-4.8c-5.5-3.1-10.1-7.6-13.2-13.1
				c-3.2-5.5-4.8-11.8-4.8-18.2c0-6.4,1.6-12.7,4.8-18.2c3.1-5.5,7.6-10.1,13.1-13.2C300.3,33,306.5,31.4,312.8,31.4z M313.1,95.8
				c7.4,0.2,14.6-2.7,19.9-8c5.4-5.2,8.3-12.5,8.1-20c0.2-7.6-2.8-14.9-8.2-20.2c-5.2-5.3-12.4-8.3-19.8-8.2
				c-7.5-0.2-14.7,2.8-19.8,8.2c-5.2,5.3-8.1,12.5-8,20c-0.2,7.5,2.8,14.8,8.2,20C298.6,92.9,305.7,95.9,313.1,95.8z" />
											<path fill="#FFFCF7" d="M440.9,102h-8l-6.4-46.8L403.3,102h-2.5l-23.4-47.2l-6.4,47.2h-7.8l9.8-68.9h2l27.1,54.7L429,33.1h2
				L440.9,102z" />
											<path fill="#FFFCF7" d="M518.3,102h-8.6l-10.6-23h-28.4l-10.5,23h-8.9l32.5-71.6h2.5L518.3,102z M495.4,70.7L485,47.5l-10.6,23.2
				H495.4z" />
											<path fill="#FFFCF7" d="M531.8,33.1h14.7c9.9,0,17.1,0.7,21.6,2.2c8.9,2.8,16,9.5,19.3,18.2c1.8,4.9,2.7,10.2,2.6,15.4
				c0,5.7-1.3,11.4-3.9,16.5c-2.5,5-6.3,9.2-11.1,12.1c-4.8,2.9-11.8,4.4-21,4.4h-22.2L531.8,33.1z M539.6,94.2h7.2
				c8,0,13.8-0.4,17.4-1.2c3.5-0.7,6.8-2.4,9.5-4.7c2.7-2.3,4.8-5.2,6.2-8.5c1.5-3.7,2.2-7.6,2.1-11.6c0-4.2-0.8-8.3-2.5-12.2
				c-1.6-3.6-4-6.7-7.1-9.1c-3.2-2.4-6.9-4-10.8-4.7c-5.9-0.9-11.8-1.3-17.8-1.2h-4.1V94.2z" />
											<path fill="#FFFCF7"
												d="M646.7,41.1h-32v19.8h31.7v7.9h-31.7V94h31.7v8h-39.8V33.1h40.1V41.1z" />
										</g>
										<g>
											<path fill="#FFFCF7" d="M218,128v3.2c-1-0.5-2.2-0.8-3.3-0.8c-0.8-0.1-1.5,0.3-1.9,0.9c-0.4,1-0.5,2-0.4,3.1v2.8h5.3v2.8h-5.3
				v22.8H209V140h-3.3v-2.8h3.3v-3.3c-0.1-1.7,0.3-3.5,1.2-5c1-1.1,2.4-1.7,3.9-1.6C215.4,127.3,216.7,127.6,218,128z" />
											<path fill="#FFFCF7"
												d="M230.7,130c0-0.7,0.3-1.4,0.8-1.9c0.5-0.5,1.2-0.8,1.9-0.8c1.5-0.1,2.8,1.1,2.9,2.6
				c0.1,1.5-1.1,2.8-2.6,2.9c-0.1,0-0.2,0-0.3,0C231.9,132.7,230.7,131.5,230.7,130L230.7,130z M231.7,137.2h3.3v25.6h-3.3V137.2z" />
											<path fill="#FFFCF7" d="M251.5,137.2h3.3v4.6c2.6-3.5,5.8-5.3,9.6-5.3c1.9,0,3.7,0.5,5.2,1.6c1.5,1,2.6,2.4,3.3,4.1
				c0.7,2.4,1.1,4.9,1,7.4v13.2h-3.3v-12.2c0.1-2-0.1-4.1-0.4-6.1c-0.2-1-0.7-1.9-1.2-2.7c-0.6-0.7-1.3-1.3-2.1-1.7
				c-1-0.4-2.1-0.6-3.2-0.6c-1.3,0-2.5,0.3-3.6,0.9c-1.2,0.6-2.3,1.5-3.1,2.6c-0.8,1-1.4,2.2-1.7,3.4c-0.4,2.3-0.5,4.6-0.4,7v9.4
				h-3.3L251.5,137.2z" />
											<path fill="#FFFCF7" d="M316,137.2v25.6h-3.2v-4.4c-2.9,3.5-6.3,5.3-10,5.3c-3.6,0.1-7.1-1.4-9.5-4c-2.5-2.5-3.9-6-3.9-9.6
				c-0.1-3.6,1.4-7,3.9-9.5c2.4-2.6,5.8-4,9.3-4c4.1-0.1,7.9,2,10.2,5.3v-4.7L316,137.2z M312.9,150.1c0.1-2.8-1-5.4-2.9-7.4
				c-1.9-2-4.5-3.1-7.2-3c-2.7,0-5.3,1.1-7.2,3.1c-3.9,4.1-3.9,10.6,0.1,14.7c1.8,2,4.5,3.1,7.2,3.1c2.7,0,5.3-1,7.2-3
				C312,155.5,313,152.9,312.9,150.1L312.9,150.1z" />
											<path fill="#FFFCF7" d="M333,137.2h3.3v4.6c2.6-3.5,5.8-5.3,9.6-5.3c1.9,0,3.7,0.5,5.2,1.6c1.5,1,2.6,2.4,3.3,4.1
				c0.7,2.4,1.1,4.9,1,7.4v13.2h-3.3v-12.2c0.1-2-0.1-4.1-0.4-6.1c-0.2-1-0.7-1.9-1.2-2.7c-0.6-0.7-1.3-1.3-2.1-1.7
				c-1-0.4-2.1-0.6-3.2-0.6c-1.3,0-2.5,0.3-3.6,0.9c-1.2,0.6-2.3,1.5-3.1,2.6c-0.8,1-1.4,2.1-1.7,3.4c-0.4,2.3-0.5,4.6-0.4,7v9.4
				H333L333,137.2z" />
											<path fill="#FFFCF7" d="M397.1,142.5l-2.6,1.6c-4-5.1-11.4-6-16.5-2c-0.2,0.1-0.4,0.3-0.5,0.4c-2,1.9-3.2,4.6-3.1,7.4
				c-0.1,2.8,1.1,5.5,3.1,7.5c2,2.1,4.9,3.2,7.8,3.1c3.6,0.1,7-1.6,9.2-4.5l2.6,1.7c-1.3,1.9-3.1,3.4-5.2,4.3c-2.2,1-4.6,1.5-7,1.5
				c-3.7,0.1-7.3-1.3-9.9-3.9c-2.6-2.5-4-5.9-4-9.5c0-3.6,1.4-7.1,4-9.7c2.7-2.7,6.5-4.2,10.3-4c2.4,0,4.7,0.5,6.9,1.6
				C394.2,139,395.9,140.6,397.1,142.5z" />
											<path fill="#FFFCF7" d="M434.4,154.5l2.8,1.4c-2.8,5.1-6.8,7.7-12.2,7.7c-3.6,0.1-7.1-1.3-9.5-4c-5-5.4-5-13.8,0-19.1
				c2.4-2.6,5.8-4.1,9.4-4c3.5-0.1,6.9,1.3,9.3,3.7c2.5,2.5,3.8,5.8,3.9,10.1h-23c0,2.8,1,5.4,2.9,7.4c1.7,1.8,4.2,2.9,6.7,2.8
				C429,160.6,432.3,158.5,434.4,154.5z M434.4,147.5c-0.3-2.3-1.6-4.3-3.4-5.7c-1.8-1.4-4-2.1-6.2-2c-4.8,0-8,2.6-9.4,7.8
				L434.4,147.5z" />
										</g>
									</g>
								</g>
							</svg>