<svg id="Layer_1" data-name="Layer 1" xmlns="http://www.w3.org/2000/svg" viewBox="0 0 646.7 194">
    <defs>
        <style>
            .cls-1 {
                fill: #fffcf7;
            }
        </style>
    </defs>
    <path class="cls-1"
        d="M3.6,102.1C-6.8,72,6,33.2,34.8,13.4,68.9-10,118.9-1.8,141.3,31c2,3,7.8,10.8,4,9.7C51.2,14.5,22.7,75.5,13.3,102.1a5.21,5.21,0,0,1-6.6,3.2A5.17,5.17,0,0,1,3.6,102.1Zm30.2-.7c12.2-8.7,40.9-23.1,81.5-7.6,18.5,8.2,20.5,13.4,10.9,30.6-8.5,15.2-32.9,40.9-45.8,36.8C56.8,153.8,38.7,127,31.1,114A9.47,9.47,0,0,1,33.8,101.4ZM17.5,131.2a4,4,0,0,1,7.3-2.2,143.14,143.14,0,0,0,37.1,38.9,4,4,0,0,1,.8,5.6,4.26,4.26,0,0,1-2.9,1.6,40.61,40.61,0,0,1-24.2-8C26,159.7,18,145.3,17.5,131.2Zm127.2,3.5c-4.6,16.8-13.9,39.8-31.8,50.9s-39.4,10.6-58.1,1.9h-.1a1.72,1.72,0,0,1-.9-2.3,1.62,1.62,0,0,1,1.6-1,74.23,74.23,0,0,0,10.5-.8,93.51,93.51,0,0,0,34.7-12.2c15.7-9.3,28.4-22.8,38.2-38.1l.5-.7a3.14,3.14,0,0,1,4.2-.7A3,3,0,0,1,144.7,134.7Zm8.1-30.4C108.6,62.8,61.5,72.7,41.2,81.6a2.79,2.79,0,0,1-3.8-1.5,3,3,0,0,1,.4-3C59.8,49.7,96.4,39,148.4,52.9c10.9,2.9,12.5,59.1,4.4,51.4Z" />
    <path class="cls-1" d="M260,102h-2.5L213.9,52v50h-8.3V33.1H208l44,50.6V33.1h8Z" />
    <path class="cls-1"
        d="M312.8,31.4a36.24,36.24,0,0,1,18.5,4.8,34.86,34.86,0,0,1,13.3,13.1,36.9,36.9,0,0,1,0,36.4,34.86,34.86,0,0,1-13.2,13.2,36.15,36.15,0,0,1-18.2,4.8,36.79,36.79,0,0,1-18.3-4.8,34.6,34.6,0,0,1-13.2-13.1,36.9,36.9,0,0,1,0-36.4,34.6,34.6,0,0,1,13.1-13.2A35.69,35.69,0,0,1,312.8,31.4Zm.3,64.4a27.15,27.15,0,0,0,19.9-8,26.77,26.77,0,0,0,8.1-20,28,28,0,0,0-28-28.4,26.27,26.27,0,0,0-19.8,8.2,28,28,0,0,0-8,20,26.86,26.86,0,0,0,8.2,20A26.74,26.74,0,0,0,313.1,95.8Z" />
    <path class="cls-1"
        d="M440.9,102h-8l-6.4-46.8L403.3,102h-2.5L377.4,54.8,371,102h-7.8L373,33.1h2l27.1,54.7L429,33.1h2Z" />
    <path class="cls-1"
        d="M518.3,102h-8.6L499.1,79H470.7l-10.5,23h-8.9l32.5-71.6h2.5ZM495.4,70.7,485,47.5,474.4,70.7Z" />
    <path class="cls-1"
        d="M531.8,33.1h14.7c9.9,0,17.1.7,21.6,2.2a30.36,30.36,0,0,1,19.3,18.2A42.63,42.63,0,0,1,590,68.9a36.41,36.41,0,0,1-3.9,16.5A29.44,29.44,0,0,1,575,97.5c-4.8,2.9-11.8,4.4-21,4.4H531.8Zm7.8,61.1h7.2q12,0,17.4-1.2a21.27,21.27,0,0,0,9.5-4.7,22.81,22.81,0,0,0,6.2-8.5A28.76,28.76,0,0,0,582,68.2,30.28,30.28,0,0,0,579.5,56a23.48,23.48,0,0,0-7.1-9.1,25.5,25.5,0,0,0-10.8-4.7A105.81,105.81,0,0,0,543.8,41h-4.1V94.2Z" />
    <path class="cls-1" d="M646.7,41.1h-32V60.9h31.7v7.9H614.7V94h31.7v8H606.6V33.1h40.1Z" />
    <path class="cls-1"
        d="M218,128v3.2a7.64,7.64,0,0,0-3.3-.8,2,2,0,0,0-1.9.9,6.5,6.5,0,0,0-.4,3.1v2.8h5.3V140h-5.3v22.8H209V140h-3.3v-2.8H209v-3.3a8.84,8.84,0,0,1,1.2-5,4.8,4.8,0,0,1,3.9-1.6A13.36,13.36,0,0,1,218,128Z" />
    <path class="cls-1"
        d="M230.7,130a2.73,2.73,0,0,1,2.7-2.7,2.75,2.75,0,0,1,.3,5.5h-.3a2.84,2.84,0,0,1-2.7-2.8Zm1,7.2H235v25.6h-3.3Z" />
    <path class="cls-1"
        d="M251.5,137.2h3.3v4.6c2.6-3.5,5.8-5.3,9.6-5.3a8.66,8.66,0,0,1,5.2,1.6,8.89,8.89,0,0,1,3.3,4.1,23.21,23.21,0,0,1,1,7.4v13.2h-3.3V150.6a31.28,31.28,0,0,0-.4-6.1,8.25,8.25,0,0,0-1.2-2.7,6.84,6.84,0,0,0-2.1-1.7,8.66,8.66,0,0,0-3.2-.6,7.4,7.4,0,0,0-3.6.9A8.64,8.64,0,0,0,257,143a9.08,9.08,0,0,0-1.7,3.4,32.55,32.55,0,0,0-.4,7v9.4h-3.3Z" />
    <path class="cls-1"
        d="M316,137.2v25.6h-3.2v-4.4c-2.9,3.5-6.3,5.3-10,5.3a12.54,12.54,0,0,1-9.5-4,13.62,13.62,0,0,1-3.9-9.6,13,13,0,0,1,3.9-9.5,12.63,12.63,0,0,1,9.3-4,12.17,12.17,0,0,1,10.2,5.3v-4.7Zm-3.1,12.9a10.18,10.18,0,0,0-2.9-7.4,9.45,9.45,0,0,0-7.2-3,9.92,9.92,0,0,0-7.2,3.1,10.6,10.6,0,0,0,.1,14.7,10,10,0,0,0,14.4.1,10.48,10.48,0,0,0,2.8-7.5Z" />
    <path class="cls-1"
        d="M333,137.2h3.3v4.6c2.6-3.5,5.8-5.3,9.6-5.3a8.66,8.66,0,0,1,5.2,1.6,8.89,8.89,0,0,1,3.3,4.1,23.21,23.21,0,0,1,1,7.4v13.2h-3.3V150.6a31.28,31.28,0,0,0-.4-6.1,8.25,8.25,0,0,0-1.2-2.7,6.84,6.84,0,0,0-2.1-1.7,8.66,8.66,0,0,0-3.2-.6,7.4,7.4,0,0,0-3.6.9,8.64,8.64,0,0,0-3.1,2.6,8.39,8.39,0,0,0-1.7,3.4,32.55,32.55,0,0,0-.4,7v9.4H333Z" />
    <path class="cls-1"
        d="M397.1,142.5l-2.6,1.6a11.76,11.76,0,0,0-16.5-2,2.18,2.18,0,0,0-.5.4,9.82,9.82,0,0,0-3.1,7.4,10.19,10.19,0,0,0,3.1,7.5,10.33,10.33,0,0,0,7.8,3.1,11.18,11.18,0,0,0,9.2-4.5l2.6,1.7a12.09,12.09,0,0,1-5.2,4.3,16.94,16.94,0,0,1-7,1.5,13.49,13.49,0,0,1-9.9-3.9,13.07,13.07,0,0,1-4-9.5,13.68,13.68,0,0,1,14.3-13.7,15.18,15.18,0,0,1,6.9,1.6A12.48,12.48,0,0,1,397.1,142.5Z" />
    <path class="cls-1"
        d="M434.4,154.5l2.8,1.4c-2.8,5.1-6.8,7.7-12.2,7.7a12.2,12.2,0,0,1-9.5-4,14,14,0,0,1,0-19.1,12.33,12.33,0,0,1,9.4-4,12.75,12.75,0,0,1,9.3,3.7c2.5,2.5,3.8,5.8,3.9,10.1h-23a10.6,10.6,0,0,0,2.9,7.4,8.91,8.91,0,0,0,6.7,2.8C429,160.6,432.3,158.5,434.4,154.5Zm0-7a8.72,8.72,0,0,0-3.4-5.7,9.41,9.41,0,0,0-6.2-2c-4.8,0-8,2.6-9.4,7.8Z" />
</svg>