<?xml version="1.0" encoding="utf-8"?>
<!-- Generator: Adobe Illustrator 25.4.1, SVG Export Plug-In . SVG Version: 6.00 Build 0)  -->
<svg version="1.1" baseProfile="tiny" id="Layer_1" xmlns="http://www.w3.org/2000/svg"
	xmlns:xlink="http://www.w3.org/1999/xlink" x="0px" y="0px" viewBox="0 0 157.9 194" overflow="visible"
	xml:space="preserve">

	<path fill="#fffcf7" d="M3.5,102.1C-6.8,72,6,33.2,34.8,13.4C68.9-10,118.9-1.8,141.3,31c2,3,7.8,10.8,4,9.7
	c-94.1-26.2-122.6,34.8-132,61.4c-0.9,2.7-3.9,4.1-6.6,3.2C5.2,104.7,4.1,103.6,3.5,102.1z M33.8,101.4c12.2-8.7,40.9-23.1,81.5-7.6
	c18.5,8.2,20.5,13.4,10.9,30.6c-8.5,15.2-32.9,40.9-45.8,36.8C56.8,153.9,38.7,127,31.1,114C28.6,109.7,29.7,104.3,33.8,101.4z
	 M17.5,131.2c0-2.2,1.8-4,4-4c1.3,0,2.6,0.7,3.3,1.8c9.8,15.2,22.4,28.4,37.1,38.9c1.8,1.3,2.1,3.8,0.8,5.6
	c-0.7,0.9-1.8,1.5-2.9,1.6c-8.7,0-17.2-2.8-24.2-8C26,159.7,18,145.3,17.5,131.2z M144.7,134.7c-4.6,16.8-13.9,39.8-31.8,50.9
	s-39.4,10.6-58.1,1.9h-0.1c-0.9-0.4-1.3-1.4-0.9-2.3c0.3-0.6,0.9-1.1,1.6-1c3.5,0,7-0.3,10.5-0.8c12.3-1.7,24-5.9,34.7-12.2
	c15.7-9.3,28.4-22.8,38.2-38.1l0.5-0.7c1-1.3,2.9-1.6,4.2-0.7C144.5,132.4,144.9,133.6,144.7,134.7z M152.8,104.3
	C108.6,62.8,61.5,72.7,41.2,81.6c-1.5,0.7-3.2,0-3.8-1.5c-0.4-1-0.3-2.1,0.4-3c22-27.4,58.6-38.1,110.6-24.2
	C159.3,55.9,160.9,112,152.8,104.3L152.8,104.3z" />
</svg>