<svg id="Layer_1" data-name="Layer 1" xmlns="http://www.w3.org/2000/svg" viewBox="0 0 674.95 194.4"><defs><style>.cls-1{fill:#123463;}.cls-2{fill:#fff;}</style></defs><circle class="cls-1" cx="97.2" cy="97.2" r="70.88"/><path class="cls-2" d="M97.2,0a97.2,97.2,0,1,0,97.2,97.2A97.2,97.2,0,0,0,97.2,0Zm-50,100.59c-6.86-20,1.63-45.7,20.73-58.82,22.6-15.52,55.72-10.06,70.55,11.65,1.33,2,5.18,7.13,2.63,6.42C78.8,42.53,59.88,82.93,53.67,100.58A3.41,3.41,0,0,1,47.23,100.59Zm20-.45c8.12-5.73,27.13-15.32,54-5,12.26,5.43,13.6,8.86,7.19,20.28-5.64,10.07-21.82,27.15-30.38,24.43-15.6-5-27.59-22.75-32.63-31.37A6.29,6.29,0,0,1,67.24,100.14ZM56.49,119.9a2.63,2.63,0,0,1,4.85-1.52,94.09,94.09,0,0,0,24.59,25.79,2.62,2.62,0,0,1-1.43,4.76,26.57,26.57,0,0,1-16-5.29C62.11,138.76,56.78,129.23,56.49,119.9Zm84.29,2.32c-3.06,11.12-9.24,26.39-21.08,33.73s-26.15,7-38.49,1.28l0,0a1.16,1.16,0,0,1,.5-2.22,54.17,54.17,0,0,0,7-.5,62.3,62.3,0,0,0,23-8.07c10.41-6.14,18.84-15.12,25.29-25.27l.3-.49A2,2,0,0,1,140.78,122.22Zm5.37-20.15c-29.32-27.53-60.53-21-74-15.07a1.93,1.93,0,0,1-2.29-3c14.56-18.16,38.83-25.28,73.32-16C150.44,69.93,151.53,107.12,146.15,102.07Z"/><path class="cls-2" d="M288.29,102.94h-2.45L242.19,53v50h-8.28V34.07h2.45l43.93,50.62V34.07h8Z"/><path class="cls-2" d="M341.07,32.38a37.18,37.18,0,0,1,18.53,4.75,34.73,34.73,0,0,1,13.31,13.12,36.76,36.76,0,0,1,0,36.41,34.84,34.84,0,0,1-13.17,13.17,36,36,0,0,1-18.21,4.8,36.72,36.72,0,0,1-18.29-4.75A34.53,34.53,0,0,1,310,86.8a35.7,35.7,0,0,1-4.8-18.15A36.2,36.2,0,0,1,310,50.4a34.87,34.87,0,0,1,13.13-13.22A35.27,35.27,0,0,1,341.07,32.38Zm.28,64.35a27.33,27.33,0,0,0,19.9-8,27,27,0,0,0,8.13-20,27.37,27.37,0,0,0-8.23-20.22,27.07,27.07,0,0,0-19.8-8.19,26.42,26.42,0,0,0-19.8,8.23,27.74,27.74,0,0,0-7.95,20,27.17,27.17,0,0,0,8.18,20A26.7,26.7,0,0,0,341.35,96.73Z"/><path class="cls-2" d="M469.11,102.94h-8l-6.4-46.85-23.14,46.85h-2.45L405.7,55.71l-6.4,47.23h-7.81l9.79-68.87h2l27.1,54.66,26.9-54.66h2Z"/><path class="cls-2" d="M546.53,102.94H538l-10.63-23H498.93l-10.54,23h-8.93L512,31.34h2.44ZM523.67,71.7,513.23,48.47,502.69,71.7Z"/><path class="cls-2" d="M560.08,34.07h14.68q14.87,0,21.64,2.21a30.38,30.38,0,0,1,19.28,18.21,41.74,41.74,0,0,1,2.64,15.43,36.31,36.31,0,0,1-3.91,16.51,29.21,29.21,0,0,1-11.1,12.13q-7.2,4.38-21,4.38h-22.2Zm7.81,61.15H575q11.94,0,17.4-1.22A21.52,21.52,0,0,0,602,89.3a22.68,22.68,0,0,0,6.16-8.52,29.74,29.74,0,0,0,2.11-11.62A29.65,29.65,0,0,0,607.73,57a23.08,23.08,0,0,0-7.1-9.12,25.26,25.26,0,0,0-10.82-4.71A102.42,102.42,0,0,0,572,42h-4.14Z"/><path class="cls-2" d="M675,42.07H643V61.83h31.71v7.9H643V94.94h31.71v8h-39.8V34.07H675Z"/><path class="cls-2" d="M240.17,128.25v3.15a8.19,8.19,0,0,0-3.27-.8,1.81,1.81,0,0,0-1.86.92,7.67,7.67,0,0,0-.42,3v2.73h5.22V140h-5.22v22.25h-3.25V140h-3.24v-2.73h3.24V134a7.84,7.84,0,0,1,1.22-4.85,4.58,4.58,0,0,1,3.81-1.55A14,14,0,0,1,240.17,128.25Z"/><path class="cls-2" d="M252.54,130.27a2.6,2.6,0,0,1,.78-1.88,2.48,2.48,0,0,1,1.88-.8,2.6,2.6,0,0,1,1.88.77,2.69,2.69,0,0,1,0,3.77,2.6,2.6,0,0,1-1.88.77,2.48,2.48,0,0,1-1.88-.8A2.54,2.54,0,0,1,252.54,130.27Zm1,7h3.25v25h-3.25Z"/><path class="cls-2" d="M272.86,137.23h3.25v4.47q3.86-5.13,9.36-5.13a8.86,8.86,0,0,1,5.08,1.53,8.35,8.35,0,0,1,3.2,4,21.68,21.68,0,0,1,.94,7.27v12.84h-3.2v-11.9a28.91,28.91,0,0,0-.4-5.93,7.52,7.52,0,0,0-1.22-2.63,5.34,5.34,0,0,0-2.1-1.65,7.47,7.47,0,0,0-3.08-.56,7.62,7.62,0,0,0-3.55.89,8.75,8.75,0,0,0-3,2.49,9,9,0,0,0-1.65,3.3,34.76,34.76,0,0,0-.42,6.82v9.17h-3.25Z"/><path class="cls-2" d="M335.85,137.23v25h-3.16v-4.28q-4.28,5.13-9.78,5.13a12.39,12.39,0,0,1-9.29-3.93,13,13,0,0,1-3.79-9.36,12.83,12.83,0,0,1,3.81-9.32,12.36,12.36,0,0,1,9.13-3.88,11.75,11.75,0,0,1,9.92,5.22v-4.56Zm-3,12.61a9.9,9.9,0,0,0-2.87-7.22,9.43,9.43,0,0,0-7-2.94,9.29,9.29,0,0,0-7,3,10.35,10.35,0,0,0,0,14.35,9.38,9.38,0,0,0,7,3,9.56,9.56,0,0,0,7-2.91A10,10,0,0,0,332.88,149.84Z"/><path class="cls-2" d="M352.5,137.23h3.24v4.47c2.57-3.42,5.7-5.13,9.36-5.13a8.82,8.82,0,0,1,5.08,1.53,8.24,8.24,0,0,1,3.2,4,21.43,21.43,0,0,1,.94,7.27v12.84h-3.19v-11.9a28.91,28.91,0,0,0-.4-5.93,7.36,7.36,0,0,0-1.23-2.63,5.3,5.3,0,0,0-2.09-1.65,7.53,7.53,0,0,0-3.08-.56,7.62,7.62,0,0,0-3.55.89,8.88,8.88,0,0,0-3,2.49,9.11,9.11,0,0,0-1.64,3.3,33.71,33.71,0,0,0-.43,6.82v9.17H352.5Z"/><path class="cls-2" d="M415,142.41,412.47,144a11.45,11.45,0,0,0-16.6-1.48,9.48,9.48,0,0,0-3.06,7.18,10,10,0,0,0,3,7.33,10.25,10.25,0,0,0,7.62,3.06,11.1,11.1,0,0,0,9-4.37l2.54,1.69A12.15,12.15,0,0,1,410,161.6a16.26,16.26,0,0,1-6.85,1.46,13.26,13.26,0,0,1-9.67-3.81,12.59,12.59,0,0,1-3.88-9.32,12.86,12.86,0,0,1,3.93-9.43,13.65,13.65,0,0,1,10.09-3.93,14.7,14.7,0,0,1,6.7,1.55A11.34,11.34,0,0,1,415,142.41Z"/><path class="cls-2" d="M451.47,154.12l2.73,1.41q-4.05,7.53-11.95,7.53a12.27,12.27,0,0,1-9.32-3.89,13.69,13.69,0,0,1,0-18.69,12,12,0,0,1,9.12-3.91,12.53,12.53,0,0,1,9.13,3.62q3.69,3.63,3.83,9.88H432.56a10.4,10.4,0,0,0,2.84,7.27,8.89,8.89,0,0,0,6.57,2.75Q448.31,160.09,451.47,154.12Zm0-6.82a8.76,8.76,0,0,0-3.3-5.6,9.64,9.64,0,0,0-6.06-2q-7.07,0-9.22,7.62Z"/></svg>