<svg id="Layer_1" data-name="Layer 1" xmlns="http://www.w3.org/2000/svg" viewBox="0 0 8 8">
    <defs>
        <style>
            .cls-1 {
                fill: #26a17b;
            }

            .cls-2 {
                fill: #fff;
            }
        </style>
    </defs>
    <circle class="cls-1" cx="4" cy="4" r="4" />
    <path class="cls-2"
        d="M4.49,3.27V2.68H5.85V1.77H2.16v.91H3.51v.59c-1.1,0-1.92.27-1.92.53s.82.48,1.92.53v1.9h1V4.33c1.1,0,1.92-.27,1.92-.53S5.59,3.32,4.49,3.27Zm0,.9h-1A6.84,6.84,0,0,1,2.3,4C2,4,1.81,3.86,1.81,3.76s.73-.37,1.7-.42V4L4,4a2.88,2.88,0,0,0,.48,0V3.34c1,.05,1.7.21,1.7.42S5.46,4.12,4.49,4.17Z" />
</svg>