<?xml version="1.0" encoding="utf-8"?>
<!-- Generator: Adobe Illustrator 25.4.1, SVG Export Plug-In . SVG Version: 6.00 Build 0)  -->
<svg version="1.1" id="Layer_1" xmlns="http://www.w3.org/2000/svg" xmlns:xlink="http://www.w3.org/1999/xlink" x="0px" y="0px"
	 viewBox="0 0 905 750" style="enable-background:new 0 0 905 750;" xml:space="preserve">
<style type="text/css">
	.st0{opacity:0.35;}
	.st1{fill:none;stroke:#E49435;stroke-width:0.5;stroke-miterlimit:10;}
</style>
<g class="st0">
	<path class="st1" d="M1400.1,41.5C1341.9-95,1204.7-179,1093.5-146.1C982.3-113.3,939.4,24,997.6,160.5
		c58.2,136.5,195.5,220.5,306.6,187.6C1415.4,315.3,1458.3,178,1400.1,41.5z"/>
	<path class="st1" d="M1392.1,44.7c-60.3-141.3-202.4-228.3-317.6-194.3c-115.1,34-159.6,176.2-99.3,317.5
		c60.3,141.3,202.4,228.3,317.5,194.3C1407.8,328.2,1452.3,186,1392.1,44.7z"/>
	<path class="st1" d="M1383.9,47.8c-62.3-146.2-209.4-236.2-328.4-201C936.4-117.9,890.4,29.1,952.8,175.3
		c62.3,146.2,209.4,236.2,328.4,201C1400.3,341.1,1446.3,194,1383.9,47.8z"/>
	<path class="st1" d="M1375.9,51c-64.4-151-216.3-244-339.3-207.6C913.5-120.3,866,31.7,930.4,182.7c64.4,151,216.3,244,339.4,207.6
		C1392.7,354,1440.2,202,1375.9,51z"/>
	<path class="st1" d="M1367.8,54.1c-66.5-155.9-223.3-251.8-350.2-214.3c-127,37.5-176,194.4-109.6,350.3
		c66.5,155.9,223.3,251.8,350.3,214.3C1385.2,366.8,1434.2,210,1367.8,54.1z"/>
	<path class="st1" d="M1359.7,57.3c-68.5-160.7-230.2-259.7-361.2-221C867.6-125,817,36.7,885.6,197.5
		c68.5,160.7,230.2,259.7,361.2,221C1377.6,379.7,1428.2,218,1359.7,57.3z"/>
	<path class="st1" d="M1351.6,60.5c-70.6-165.6-237.2-267.5-372.1-227.6s-187,206.5-116.4,372.1c70.6,165.6,237.2,267.5,372.1,227.6
		S1422.2,226.1,1351.6,60.5z"/>
	<path class="st1" d="M1343.5,63.6c-72.7-170.5-244.1-275.4-383-234.3c-138.8,41-192.5,212.5-119.8,383
		c72.7,170.5,244.1,275.4,383,234.3C1362.5,405.5,1416.2,234.1,1343.5,63.6z"/>
	<path class="st1" d="M1335.4,66.8c-74.7-175.3-251.1-283.2-393.9-241C798.8-132,743.6,44.4,818.3,219.7
		c74.7,175.3,251.1,283.2,393.9,241S1410.1,242.1,1335.4,66.8z"/>
	<path class="st1" d="M1327.3,69.9c-76.8-180.2-258-291-404.8-247.6C775.8-134.3,719.1,46.9,795.9,227.1
		c76.8,180.2,258,291,404.8,247.6C1347.4,431.3,1404.1,250.1,1327.3,69.9z"/>
	<path class="st1" d="M1319.2,73.1c-78.9-185-265-298.9-415.7-254.3s-208.9,230.6-130,415.7c78.9,185,265,298.9,415.7,254.3
		C1339.9,444.2,1398.1,258.1,1319.2,73.1z"/>
	<path class="st1" d="M1311.1,76.3c-80.9-189.9-271.9-306.7-426.6-261C729.9-139,670.2,52,751.1,241.8s271.9,306.7,426.6,261
		C1332.3,457.1,1392.1,266.1,1311.1,76.3z"/>
	<path class="st1" d="M1303,79.4c-83-194.7-278.9-314.5-437.5-267.7C707-141.3,645.7,54.5,728.7,249.2
		c83,194.7,278.9,314.5,437.5,267.7C1324.8,470,1386,274.1,1303,79.4z"/>
	<path class="st1" d="M1294.9,82.6c-85.1-199.6-285.8-322.4-448.4-274.3C684-143.7,621.2,57.1,706.3,256.6
		c85.1,199.6,285.8,322.4,448.4,274.3C1317.2,482.9,1380,282.1,1294.9,82.6z"/>
	<path class="st1" d="M1286.8,85.7c-87.2-204.4-292.8-330.2-459.3-281S596.8,59.6,683.9,264s292.8,330.2,459.3,281
		C1309.7,495.8,1374,290.2,1286.8,85.7z"/>
	<path class="st1" d="M1278.7,88.9C1189.5-120.4,979-249.1,808.6-198.7C638.1-148.4,572.3,62.1,661.5,271.4
		c89.2,209.3,299.7,338.1,470.2,287.7C1302.1,508.7,1367.9,298.2,1278.7,88.9z"/>
	<path class="st1" d="M1270.6,92.1C1179.3-122,964-253.8,789.6-202.3C615.2-150.7,547.8,64.7,639.1,278.8
		c91.3,214.1,306.7,345.9,481.1,294.3C1294.6,521.6,1361.9,306.2,1270.6,92.1z"/>
	<path class="st1" d="M1262.5,95.2c-93.4-219-313.6-353.7-492-301c-178.3,52.7-247.2,273-153.9,492c93.4,219,313.6,353.7,492,301
		C1287,534.5,1355.9,314.2,1262.5,95.2z"/>
	<path class="st1" d="M1254.4,98.4C1159-125.4,933.9-263.2,751.6-209.3c-182.3,53.9-252.7,279-157.3,502.9
		c95.4,223.8,320.6,361.6,502.9,307.7C1279.4,547.4,1349.9,322.2,1254.4,98.4z"/>
	<path class="st1" d="M1246.3,101.6c-97.5-228.7-327.5-369.4-513.8-314.3S474.4,72.3,571.9,301c97.5,228.7,327.5,369.4,513.8,314.3
		C1271.9,560.3,1343.8,330.2,1246.3,101.6z"/>
	<path class="st1" d="M1238.2,104.7c-99.6-233.5-334.5-377.2-524.7-321C523.4-160.1,449.9,74.8,549.5,308.4
		c99.6,233.5,334.5,377.3,524.7,321C1264.3,573.1,1337.8,338.2,1238.2,104.7z"/>
	<path class="st1" d="M1230.2,107.9c-101.6-238.4-341.4-385.1-535.6-327.7C500.4-162.4,425.4,77.4,527.1,315.8
		c101.6,238.4,341.4,385.1,535.6,327.7C1256.8,586,1331.8,346.3,1230.2,107.9z"/>
	<path class="st1" d="M1222.1,111c-103.7-243.2-348.4-392.9-546.5-334.3C477.5-164.7,401,79.9,504.7,323.2
		C608.4,566.4,853,716.1,1051.1,657.5C1249.2,598.9,1325.8,354.3,1222.1,111z"/>
	<path class="st1" d="M1214,114.2c-105.8-248.1-355.3-400.8-557.4-341C454.5-167.1,376.5,82.5,482.3,330.5
		c105.8,248.1,355.3,400.8,557.4,341C1241.7,611.8,1319.7,362.3,1214,114.2z"/>
	<path class="st1" d="M1205.9,117.4C1098-135.6,843.6-291.2,637.6-230.3S352,85,459.9,337.9c107.8,252.9,362.3,408.6,568.3,347.7
		C1234.1,624.7,1313.7,370.3,1205.9,117.4z"/>
	<path class="st1" d="M1197.8,120.5c-109.9-257.8-369.2-416.4-579.2-354.4c-210,62.1-291.1,321.4-181.2,579.2
		c109.9,257.8,369.2,416.4,579.2,354.4C1226.6,637.6,1307.7,378.3,1197.8,120.5z"/>
	<path class="st1" d="M1189.7,123.7c-112-262.6-376.2-424.3-590.1-361C385.7-174.1,303.1,90.1,415,352.7
		c112,262.6,376.2,424.3,590.1,361C1219,650.5,1301.7,386.3,1189.7,123.7z"/>
	<path class="st1" d="M1181.6,126.8c-114-267.5-383.1-432.1-601-367.7c-217.9,64.4-302,333.5-188,601
		c114,267.5,383.1,432.1,601,367.7C1211.5,663.4,1295.6,394.3,1181.6,126.8z"/>
	<path class="st1" d="M1173.5,130c-116.1-272.3-390.1-439.9-611.9-374.4C339.8-178.8,254.1,95.2,370.2,367.5
		c116.1,272.3,390.1,439.9,611.9,374.4C1203.9,676.3,1289.6,402.3,1173.5,130z"/>
</g>
</svg>
