<svg id="Layer_1" data-name="Layer 1" xmlns="http://www.w3.org/2000/svg" viewBox="0 0 1920 1080">
    <defs>
        <style>
            .cls-1 {
                opacity: 0.05;
            }

            .cls-2 {
                fill: var(--nomade-primary);
            }
        </style>
    </defs>
    <g class="cls-1">
        <path class="cls-2"
            d="M1285.79,228c-65.18,3.9-123.74.86-181.08-14.5a245.45,245.45,0,0,1-45.3-17c-31.66-15.71-47.08-43.22-51.66-77.37C1002,76.43,1005,33.75,1014-7.93c18.67-86,39.55-171.5,59.37-257.22,6.5-28,24.3-44.66,51.15-52.83,26.44-8,53.69-10.5,80.92-8.54,33.94,2.45,67.79,6.57,101.5,11.24,22.24,3.08,30.24,18.22,21.5,39.16-11.19,26.81-28.71,49.5-48.64,70.38-22.72,23.85-49,43.25-77.52,59.35-13,7.32-20.45,17.55-23.65,31.5q-8.31,36.11-16.31,72.27c-9,40.46-18.3,80.86-26.91,121.4-4.29,20.23-3.59,22.69,16.73,27.62,36.64,8.89,73.75,15.85,110.69,23.5,27.24,5.63,54.5,11.19,81.79,16.5,26.08,5.07,38,22.57,42.53,47,3.44,18.65-10.89,34.95-30,34.71C1331.31,227.76,1305.47,228,1285.79,228Z" />
        <path class="cls-2"
            d="M1679.81-9.92c0,34.64.06,69.29,0,103.93-.06,21-22.16,40.25-43.31,38-9.56-1-16.54-7.87-18.15-19.65a271.51,271.51,0,0,1-2.33-33.1c-.8-59.35-1.29-118.7-2-178-.18-15.65-1-17.13-16.43-18.88-32.88-3.71-26.59-7.7-31,21.9-9.15,60.64-16.14,121.6-25.17,182.26-5.6,37.61-13.06,74.95-20.2,112.31-3.35,17.53-12.76,24.76-30.43,21.72s-34.9-7.81-51.87-13.27c-13-4.17-19.57-15-18.9-28.44a393.47,393.47,0,0,1,5.39-50.72q22.35-122.32,45.87-244.43c2.28-11.94,6.63-23.5,10-35.21,5.5-19.31,17.64-32.26,37-37.62,44.32-12.23,88.43-25.38,133.15-35.91,65.86-15.5,132.62-26.14,200.35-29.25a368.31,368.31,0,0,1,40.82.77c20.47,1.33,36,11.15,46.1,29.2,2.5,4.46,5.18,8.85,7.24,13.5,34.78,78.56,65.86,158.39,81.65,243.3,1.12,6,.94,13.6-1.83,18.74-6.77,12.58-30.17,11.61-37.2-.82-2.09-3.69-3.75-7.64-5.53-11.5q-35.12-76.65-70.23-153.26c-16.5-35.95-24-41.55-63.64-38-43.24,3.91-86.24,10.42-129.35,15.79-10.14,1.26-20.26,3-30.45,3.56-8.5.46-11.53,4.79-11.5,12.42.12,18.74.39,37.47.5,56.2.09,18.16,0,36.33,0,54.5Z" />
        <path class="cls-2"
            d="M2361.37,596.49c-35.73-2.73-67.8-4.43-99.67-7.86-26.36-2.83-34.57-12-38.5-38.38-2.19-14.6-4.17-29.23-6.15-43.86-1-7.14-4.82-10.23-12-11.92-29.27-6.87-58.4-14.41-87.5-22-24.5-6.34-37.94-22.72-41.56-47.39-4.53-30.9-8.65-61.86-13.24-92.75-3.59-24.12-3.6-20.5-23.09-18.23-21.62,2.5-43.12,6.44-64.5,10.69-14.44,2.87-21.21,11.63-21.88,27.58-1.12,26.9-4.91,53.69-7.67,80.5a62.2,62.2,0,0,1-1.8,9.19c-4.62,17.88-14.94,23.5-32.5,17.79-2.69-.88-5.36-1.86-8-2.9-21.15-8.26-26.11-15.5-24.45-37.92,2.44-32.83,5.27-65.63,8.17-98.43.47-5.33,2-10.58,3.35-15.81,6.5-26.25,22-41.88,49.59-47.15,49.41-9.44,98.6-19.71,149.21-19.82,6.81,0,13.66-.5,20.42,0,23.54,1.78,37.26,11.71,42.8,34.63,5.65,23.39,8.46,47.46,12.87,71.16,3.94,21.21,8.47,42.3,12.5,63.5,1.29,6.81,4.77,9.5,11.75,9.12,22.11-1.22,44.25-1.87,66.37-3.11,25.1-1.4,39.31,6.08,46.72,30.2,7.14,23.22,10.75,47.5,15.89,71.36.65,3,.47,6.5,1.89,9.11s4.25,5.83,6.59,5.94c19,.87,38,1.06,57,1.5,6.7.15,10.94-2.79,13.9-9,9.32-19.47,19.55-38.5,28.56-58.1,7.65-16.63,20.7-25.2,38.08-25.6,45.68-1.06,91.39-1.3,137.09-1.3,11.91,0,17.61,6.28,18.59,18,.88,10.47,1.6,21,1.64,31.47.11,22.34-8.82,33.46-30.84,36.47-27,3.68-54.12,6.55-81.26,8.84-10.24.87-15.77,5-19.19,14.5-3.72,10.39-8.66,20.37-13.59,30.27-4.66,9.35-12.54,14.56-23.09,15.1C2421.81,593.56,2389.78,595.11,2361.37,596.49Z" />
        <path class="cls-2"
            d="M1547.91,302.53c.79-20.77,9-36.82,25.37-48.68,34.23-24.86,69-49,102.76-74.5,22.16-16.74,43.28-34.91,64.25-53.15,20.55-17.87,30.56-40.6,27.61-68.22-3.1-29-6.5-58.08-9.45-87.15-.92-9-2.08-18.19-1.14-27.09,2.07-19.5,18.92-29.33,35.82-19.46,16.26,9.5,31.35,21.45,45.5,33.95,11.62,10.27,21.09,23,31.59,34.5,5.34,5.87,11.21,11.27,16.23,17.39,16.71,20.35,28.16,43.38,30.94,69.69,1.62,15.35-4.58,29.06-15.24,40.26a226.37,226.37,0,0,1-19.29,18c-74.74,62.17-151.71,121.29-235.38,171.2-18.29,10.91-36.23,22.41-54.5,33.32a49.19,49.19,0,0,1-14.86,6c-9.46,2-18.11-2.66-21.55-12.57C1552.78,325.22,1550.72,313.75,1547.91,302.53Z" />
        <path class="cls-2"
            d="M1745.35,401.05c-2.86,14-5.23,26.16-7.88,38.26a133.66,133.66,0,0,1-4.66,17.24c-5.29,14.58-15.33,19.34-29.5,13.27-15.4-6.57-30.39-14.07-45.56-21.14-3.57-1.67-7.2-3.21-11.7-5.2-1.5,3.17-2.84,5.85-4,8.59-5.86,13.54-11.41,27.22-17.63,40.59a69.29,69.29,0,0,1-10.07,15.7c-11.5,13.4-24.5,14.43-37.84,3.08-21.5-18.29-41-38.44-56.76-62-13.46-20-11.41-33.8,11.7-50,11-7.76,21.61-3.31,25.86,9.44.36,1.08.44,2.38,1.11,3.2,10.69,13,21.46,26,33.66,40.74,2.5-6,4-9.16,5.18-12.5,4.66-13.4,8.88-27,13.87-40.25,8.26-22,21.13-26.45,41-14.24,11.6,7.12,22.74,15,34.28,22.22,4.22,2.64,9,4.41,14.93,7.25,1.23-8.15,2-14.84,3.29-21.42,2.59-13.36,4.47-27,8.44-39.91,6.19-20.22,21.28-24.5,38.1-11.57,11.47,8.83,22.44,18.29,33.66,27.44,2.12,1.72,4.33,3.33,7.75,5.95,3.13-20.12,4.42-38.78,3.26-57.78a60.93,60.93,0,0,1,3.46-24.74c1.71-4.5,8-9.28,12.91-10.24,21.21-4.15,34,6,33.84,27.63-.24,36.88-1.36,73.78-3,110.64-.87,19.67-12.09,26.33-30.71,20.38-21.11-6.73-40.44-16.44-56.56-32C1752.94,407,1749.73,404.67,1745.35,401.05Z" />
        <path class="cls-2"
            d="M1302,83.11c-19.35-2.56-39-3.7-58-8C1209,67.17,1193.26,44.61,1196,8.73c1.58-20.93,3.74-41.82,5.7-62.72,1.29-13.66,8.8-22.73,21.61-26.7a167.28,167.28,0,0,1,29-6.42c36-4.38,72.16-8.24,108.26-12.16a90.77,90.77,0,0,1,13.6-.17c13.78.53,24.29,7.39,27.09,20.5a343.79,343.79,0,0,1,6.59,53.75c.53,10.27-7.94,17.87-19.62,18.81a214.8,214.8,0,0,1-34.77-.45c-23.19-1.91-46.32-4.47-69.44-7-5.29-.58-8.31.61-8.47,6.31a23.68,23.68,0,0,1-.35,2.53c-3.41,22.47-2.5,24.06,19.2,28.88,10.46,2.32,21.44,2.72,31.59,5.87A153.64,153.64,0,0,1,1358.24,44c3.39,2,5.5,9.34,5.07,14-.86,9.59-13.07,19.94-22.83,21.14-5.07.62-10.17,1.16-15.27,1.31-7.65.22-15.31.06-23,.06Z" />
        <path class="cls-2"
            d="M1409.45,281c22.61-1.32,45.22-2.6,67.83-4,4.24-.26,8.44-1.31,12.68-1.5,16.94-.73,25.63,10.43,18.77,25.77-26.76,59.87-52.6,120.24-89.5,174.94-10.36,15.36-26,17.81-38.62,4.23-7.5-8.12-14.41-18.16-17.72-28.57-15.26-48-25.73-97.13-32.72-147-1.93-13.72,5.54-23.83,19.69-24.77,19.74-1.33,39.64-.34,59.47-.34C1409.37,280.21,1409.41,280.61,1409.45,281Z" />
        <path class="cls-2"
            d="M1075.46,296c-6,6-10.71,11.28-16,16-21.5,19.18-45.09,13.5-53.63-13.8-4.71-15.06-7.27-30.9-9.64-46.56-1.8-11.86,4.87-17.93,16.5-20.36,13.57-2.83,26.27-.57,39.4,2.3,21.06,4.61,42.4,7.91,63.53,12.23,9.65,2,19.17,4.78,28.59,7.7a15.55,15.55,0,0,1,10.5,19.09c-6,24.12-19.17,43.65-41.82,55.09-11,5.54-22.5.64-28.7-10.89C1081,310.61,1078.73,303.88,1075.46,296Z" />
        <path class="cls-2"
            d="M1239,431.2c-34.85-2.5-72.78-5-110.67-8.08-21.34-1.74-28.75-11.92-25.52-33.19.34-2.24.72-4.5,1.23-6.69,5-21.64,14.14-27.87,36-24.29q62.58,10.21,125.14,20.57c8.4,1.38,16.84,2.55,25.19,4.15,12.32,2.37,17.44,7.35,18.75,17.64,1.42,11.25-2.61,17.6-14.4,23.11C1278,432.29,1260,431.49,1239,431.2Z" />
        <path class="cls-2"
            d="M1198.3,320.82c1.38-6.64,3.44-19.55,6.86-32.07,3.72-13.63,14.54-20.95,27.95-16.88a420.8,420.8,0,0,1,55.39,21.46c11.5,5.35,11.43,25.18-.58,34.39-19.6,15-41.7,25.5-67.1,25.9C1205.58,353.85,1197.66,344,1198.3,320.82Z" />
        <path class="cls-2"
            d="M426.83-102.35c-15.85-2.77-30.13-4.94-44.26-7.81-15.84-3.22-31.78-6.3-47.27-10.84-19-5.57-25.52-14.75-24.47-34.6,1.21-22.64,3.82-45.21,5.86-67.81.27-3,.81-6,1.4-10.24-3.79.76-6.5,1.09-9.07,1.86-25.86,7.66-51.94,14.66-77.45,23.35-18.19,6.2-33.29,4.64-46.07-10.5-8.78-10.38-18.66-20-26.37-31.06-5-7.22-8.25-16.26-10.1-25-3.39-15.87,3.75-30.21,18.06-38a76.8,76.8,0,0,1,19.83-7.43q114.81-25.21,229.76-49.76a187.35,187.35,0,0,1,37.18-4c26.62-.22,39.5,17.08,31,42.26-4.31,12.77-10.67,25.12-17.74,36.66-17.79,29.05-36.54,57.5-54.82,86.26-2.05,3.21-3.6,6.74-6.5,12.23,15-1.23,27.88-2.14,40.74-3.35,33.63-3.17,67.2-7.06,100.89-9.42,14.9-1,30,.8,45,1.62a43,43,0,0,1,10.78,2.39c17.31,5.64,24.29,19.53,16.94,36.13A133.39,133.39,0,0,1,604-142.39C568.23-95.75,532.1-49.39,496-3c-7.32,9.41-15,18.55-22.44,27.86-1.68,2.11-3.08,4.45-6,8.73,5.94-1.5,9.55-2,12.88-3.31,28.34-10.89,56.61-22,84.94-32.88,12.71-4.9,25.4-9.88,38.29-14.28a45.18,45.18,0,0,1,15-2.33c11.68.19,20,8.17,20.21,19.85a69.33,69.33,0,0,1-2.69,19.26c-21.1,78.12-42.07,156.28-63.9,234.19a372.5,372.5,0,0,1-21.08,56.5c-11.94,25.62-31.92,43.21-59.72,50.77-23.83,6.5-47.73,12.67-71.64,18.86A55.29,55.29,0,0,1,409,381.86c-7.42.39-13.59-2.16-16.61-9.36s-.78-13.6,4.85-18.44a264.61,264.61,0,0,1,23.34-18.5,90.66,90.66,0,0,0,29.5-33.5c26.08-49.5,32.93-103.36,35-158.24.3-7.72-3.19-11.38-10.34-13q-34.05-7.75-68-15.91C395.42,112.19,384,109.6,373,106a81.05,81.05,0,0,1-19.77-9.7c-15.08-10.16-18.5-22.9-10.3-39.08C356.43,30.63,370.37,4.27,384.37-22,396.91-45.6,409.81-69,422.48-92.45,423.94-95.08,425-98,426.83-102.35Z" />
        <path class="cls-2"
            d="M233.64,596.49c-35.74-2.73-67.8-4.43-99.67-7.86-26.37-2.83-34.57-12-38.53-38.38-2.19-14.6-4.17-29.23-6.14-43.86-1-7.14-4.83-10.23-12-11.92-29.28-6.88-58.4-14.41-87.5-22-24.5-6.34-37.95-22.72-41.57-47.39-4.53-30.9-8.64-61.86-13.24-92.75-3.59-24.12-3.6-20.5-23.09-18.23-21.62,2.5-43.11,6.44-64.5,10.69-14.43,2.87-21.21,11.63-21.87,27.58-1.13,26.9-4.92,53.69-7.68,80.52a60.93,60.93,0,0,1-1.8,9.19c-4.62,17.88-14.94,23.5-32.5,17.79-2.7-.88-5.36-1.86-8-2.9-21.15-8.26-26.11-15.5-24.45-37.92,2.44-32.83,5.26-65.63,8.17-98.43.47-5.33,2-10.58,3.35-15.81,6.5-26.25,22-41.88,49.59-47.15,49.41-9.44,98.6-19.71,149.21-19.82,6.81,0,13.65-.5,20.42,0,23.53,1.78,37.26,11.71,42.8,34.63,5.65,23.39,8.46,47.46,12.87,71.16C41.45,364.88,46,386,50,407.18c1.3,6.8,4.78,9.5,11.75,9.11,22.11-1.22,44.26-1.87,66.37-3.1,25.1-1.4,39.31,6.07,46.73,30.19,7.13,23.23,10.75,47.53,15.88,71.37.66,3,.47,6.5,1.89,9.11s4.25,5.82,6.59,5.93c19,.88,38,1.06,57,1.5,6.7.15,10.93-2.79,13.9-9,9.32-19.46,19.55-38.5,28.56-58.1,7.64-16.62,20.7-25.2,38.08-25.6,45.68-1,91.39-1.3,137.09-1.29,11.91,0,17.61,6.27,18.59,18,.88,10.46,1.6,21,1.64,31.46.1,22.34-8.82,33.46-30.84,36.47-27,3.69-54.12,6.56-81.26,8.85-10.24.86-15.77,5-19.19,14.5-3.72,10.38-8.66,20.37-13.6,30.27-4.65,9.34-12.53,14.55-23.08,15.09C294.08,593.56,262.05,595.11,233.64,596.49Z" />
        <path class="cls-2"
            d="M995.94-107.55c-2.5,31.35-3.76,62.88-8,94a169.91,169.91,0,0,1-26.78,71.24c-15.84,24-36.78,42.16-64.66,50.07-31.35,8.89-63.19,16.08-94.88,23.79-29.5,7.18-59,14.1-88.6,21-4.11,1-8.39,2-12.54,1.83-11.69-.47-18-10.15-13.43-20.82a63.71,63.71,0,0,1,10-16.68q41-46.71,82.64-92.8c16-17.65,32.06-35.44,49.53-51.6,31.23-28.88,45.63-64.83,45.83-106.28.24-51.34.24-102.77-2.67-154C869.33-343,862.31-398,857.81-453.12c-1.63-20-1.13-40.23-1-60.35,0-5.85,1.58-11.83,3.28-17.5,2.18-7.28,7-12.47,15-13.35s13.93,3.16,17.45,9.86c7.12,13.57,14,27.3,20.39,41.21C960.49-390.36,985-281.94,990.25-168.94c.5,10.21,1.33,20.4,2,30.59s1.25,20.4,1.87,30.6Z" />
        <path class="cls-2"
            d="M76.74,23.84c11.07,0,22.15.16,33.21,0,10.84-.2,18.37,4.57,23.3,14.09,35.92,69.3,77.72,135.5,109.56,207,4.5,10.08,11.24,19.13,16,29.12,4,8.38,9.32,9.24,16.21,4.86,16.5-10.5,33.14-20.79,49-32.11,13.63-9.7,26.11-21,39.5-31.08,15.91-12,31.31-7.45,38.85,10.94,7.18,17.5,6.27,24.38-8.26,36.8-31.5,26.91-63.52,53.23-95.44,79.66a95.5,95.5,0,0,1-12.8,8.42c-13.79,8.09-27.5,7.42-39.64-2.72-9.32-7.78-18.72-16.1-25.79-25.84-28.32-39.06-56.5-78.25-83.25-118.4-19.81-29.75-37.38-61-55.7-91.74-3.4-5.7-7.77-9.21-14.24-9.09-13.58.25-27.16.84-40.73,1.56-7.94.42-15.83,1.6-23.77,2-10.22.53-15.29-3.31-18.16-13-3-10.06-6.37-20-8.93-30.2-4.11-16.34.95-26.41,17.5-30,18.5-4,37.5-6,56.35-8,9-1,18.15-.17,27.23-.17Z" />
        <path class="cls-2"
            d="M595.14,408.88c.57-47,7.63-86.4,30.59-121.42,18.32-28,43.23-49.1,71.89-65.8,27.46-16,57.19-24.15,88.87-18.86,17,2.83,34.32,6.31,49,17,11,8,13.46,22.16,4.09,32.33-13.93,15.13-28.56,29.63-42.87,44.41-19.42,20-38.74,40.2-58.26,60.15-12,12.32-24.38,24.36-36.58,36.5-24.16,24.09-48.44,48.06-72.4,72.35-8.15,8.25-19.27,7.5-24.6-2.84a42.78,42.78,0,0,1-3.94-12.91C598.51,434.27,596.5,418.66,595.14,408.88Z" />
        <path class="cls-2"
            d="M898.4,539.66c-2.85,14-5.23,26.15-7.87,38.26a135.33,135.33,0,0,1-4.67,17.24c-5.28,14.58-15.32,19.34-29.5,13.27C841,601.86,826,594.36,810.8,587.29c-3.59-1.68-7.22-3.18-11.72-5.18-1.5,3.17-2.84,5.84-4,8.59-5.86,13.54-11.41,27.22-17.63,40.59A69.4,69.4,0,0,1,767.35,647c-11.5,13.41-24.5,14.44-37.84,3.09-21.5-18.29-41-38.44-56.76-62-13.45-20-11.41-33.8,11.71-50,11-7.76,21.61-3.32,25.86,9.44.36,1.08.43,2.38,1.1,3.2,10.7,13,21.47,26,33.66,40.74,2.5-5.95,4-9.16,5.19-12.5,4.66-13.41,8.88-27,13.86-40.25,8.26-22,21.13-26.46,41-14.24,11.6,7.12,22.75,15,34.29,22.22,4.22,2.64,9,4.41,14.93,7.25,1.23-8.16,2-14.84,3.28-21.42,2.6-13.36,4.5-27,8.44-39.91,6.19-20.22,21.29-24.53,38.11-11.57,11.46,8.83,22.44,18.28,33.65,27.44,2.12,1.72,4.34,3.33,7.76,5.94,3.12-20.11,4.42-38.77,3.26-57.77a61.1,61.1,0,0,1,3.45-24.74c1.71-4.5,8-9.28,12.91-10.25,21.22-4.14,34,6,33.84,27.63-.24,36.89-1.36,73.79-3,110.65-.87,19.67-12.08,26.33-30.71,20.38-21.11-6.73-40.44-16.44-56.55-32C906,545.61,902.79,543.28,898.4,539.66Z" />
        <path class="cls-2"
            d="M327.88-49.79c-3.25,38-11.23,75.09-22,111.71-7.56,25.81-13.89,52-20.42,78.1-3.47,13.87-16.36,19.07-28.15,10.5-10.06-7.31-14.79-17.87-15.84-29.93-1.94-22.32-3.39-44.69-5.14-67-.5-6.5-1.45-13-2.07-19.47-2-21-9.75-39-24.53-54.69C182.61-49.48,162-83.25,141.11-116.74a46.89,46.89,0,0,1-3.82-7.59c-3.07-7.83-3.63-15.63,2.18-22.5s13.92-7.89,21.85-5.31c23.2,7.5,46.64,14.55,69.17,23.79,22,9,43.22,20.09,64.31,31.17,7.89,4.14,14.9,10.34,21.46,16.5C325-72.47,328.67-61.85,327.88-49.79Z" />
        <path class="cls-2"
            d="M602.52,628.61c-23.23-5.09-47.11-9.31-68.56-21-12-6.5-16.07-20.55-8-31.5,13.2-18,27.2-35.67,42.93-51.42,13.28-13.28,29.87-8.66,36.76,8.77,8.76,22.14,16.69,44.62,24.36,67.17,4.06,11.94-1.53,21.36-13.67,24.92C612,626.83,607.49,627.52,602.52,628.61Z" />
        <path class="cls-2"
            d="M900.64,180.82v-5.95c-.14-21.82,9.37-30.5,31.22-27.94,7.85.91,15.82,1.9,23.37,4.11,13.8,4,19.77,13.55,18,27.73-1.88,14.89-4.07,29.75-6.43,44.57-1.5,9.5-6.72,15.39-16.33,15.54a213.09,213.09,0,0,1-37.92-2.83c-9.34-1.55-14.29-9.21-14-19.66.31-11.86,1.69-23.7,2.61-35.54Z" />
        <path class="cls-2"
            d="M801.88,448c.07,25-17.54,46-38.5,46-23.47,0-45.2-23-45.08-47.78.13-23.39,18.91-41.89,42.57-41.91C785.08,404.28,801.8,422.11,801.88,448Z" />
        <path class="cls-2"
            d="M962.68,703.27c.08,25-17.54,46-38.5,46-23.47,0-45.2-23-45.07-47.78.12-23.39,18.9-41.88,42.56-41.91C945.88,659.53,962.58,677.34,962.68,703.27Z" />
        <path class="cls-2"
            d="M148.42,328.44c.12,12.5-4.41,19.54-12.78,23.31C122,357.9,108.18,364,93.94,368.54c-4.66,1.5-11.79-.53-16.14-3.42-5.5-3.66-4.85-10.45-2-16.26,6.38-13.2,12.57-26.5,19.6-39.36a48.35,48.35,0,0,1,11.53-13.35c6.18-5.14,14-6.25,20.5-1.24C139.29,304,145.73,316.75,148.42,328.44Z" />
        <path class="cls-2"
            d="M1142.61,492.11c.12,12.5-4.4,19.54-12.77,23.3-13.67,6.16-27.46,12.25-41.7,16.8-4.66,1.5-11.8-.53-16.15-3.43-5.5-3.66-4.85-10.45-2-16.25,6.38-13.2,12.58-26.5,19.6-39.36a48.1,48.1,0,0,1,11.54-13.35c6.18-5.14,14-6.25,20.5-1.25C1133.48,467.65,1139.93,480.4,1142.61,492.11Z" />
        <path class="cls-2"
            d="M933.08,328.44c.12,12.5-4.4,19.54-12.78,23.31-13.66,6.15-27.46,12.24-41.7,16.79-4.65,1.5-11.79-.53-16.14-3.42-5.5-3.66-4.85-10.45-2-16.26,6.38-13.2,12.57-26.5,19.6-39.36a48.35,48.35,0,0,1,11.53-13.35c6.19-5.14,14-6.25,20.5-1.24C923.94,304,930.38,316.75,933.08,328.44Z" />
        <path class="cls-2"
            d="M634.21,922.27c65.18-3.9,123.74-.85,181.08,14.5a245.72,245.72,0,0,1,45.3,17c31.66,15.71,47.08,43.22,51.66,77.37,5.72,42.71,2.79,85.39-6.25,127.07-18.67,86-39.55,171.5-59.38,257.22-6.47,28-24.29,44.66-51.14,52.83-26.44,8-53.69,10.5-80.92,8.54-33.94-2.45-67.79-6.57-101.5-11.24-22.25-3.08-30.24-18.22-21.5-39.16,11.19-26.8,28.71-49.5,48.64-70.38,22.74-23.83,49-43.24,77.5-59.35,13-7.32,20.45-17.55,23.66-31.5q8.29-36.11,16.31-72.28c9-40.45,18.3-80.85,26.91-121.4,4.29-20.22,3.59-22.69-16.73-27.62-36.64-8.88-73.75-15.85-110.7-23.5-27.23-5.62-54.5-11.18-81.79-16.5-26.07-5.06-38-22.56-42.5-47-3.44-18.65,10.89-34.94,30-34.7C588.69,922.52,614.53,922.27,634.21,922.27Z" />
        <path class="cls-2"
            d="M240.19,1160.2c0-34.64-.07-69.29,0-103.93.06-21,22.16-40.25,43.3-38,9.57,1,16.55,7.86,18.15,19.64A273.54,273.54,0,0,1,304,1071c.8,59.35,1.29,118.7,2,178,.18,15.65,1,17.13,16.43,18.88,32.88,3.71,26.58,7.7,31.05-21.9,9.15-60.64,16.14-121.6,25.17-182.26,5.6-37.61,13.05-74.95,20.2-112.31,3.35-17.53,12.76-24.76,30.43-21.72s34.9,7.82,51.87,13.27c13,4.17,19.57,15,18.89,28.44a393.46,393.46,0,0,1-5.38,50.72q-22.36,122.33-45.87,244.43c-2.28,11.94-6.64,23.5-10,35.21-5.5,19.31-17.64,32.26-37,37.62-44.32,12.23-88.43,25.38-133.16,35.92-65.85,15.5-132.61,26.14-200.34,29.24a368.31,368.31,0,0,1-40.82-.77c-20.5-1.33-36-11.15-46.1-29.2-2.5-4.46-5.18-8.85-7.24-13.5-34.78-78.56-65.87-158.39-81.65-243.3-1.12-6-.94-13.6,1.82-18.74,6.78-12.58,30.18-11.61,37.21.82,2.09,3.69,3.75,7.64,5.53,11.5L7.2,1264.69c16.5,36,24,41.55,63.64,38,43.24-3.91,86.24-10.42,129.35-15.79,10.14-1.26,20.26-3,30.45-3.56,8.5-.46,11.53-4.79,11.5-12.42-.12-18.73-.39-37.47-.48-56.2-.08-18.16,0-36.33,0-54.5Z" />
        <path class="cls-2"
            d="M-441.37,553.79c35.73,2.73,67.8,4.43,99.67,7.86,26.36,2.83,34.57,12,38.5,38.38,2.19,14.6,4.17,29.23,6.15,43.86,1,7.14,4.82,10.23,12,11.92,29.27,6.88,58.4,14.41,87.5,22,24.5,6.34,37.94,22.72,41.56,47.39,4.5,30.9,8.65,61.86,13.24,92.75,3.59,24.12,3.6,20.48,23.09,18.23,21.62-2.5,43.12-6.44,64.5-10.69,14.43-2.87,21.2-11.63,21.87-27.58,1.13-26.9,4.92-53.69,7.67-80.52a64.05,64.05,0,0,1,1.8-9.19c4.63-17.87,15-23.5,32.5-17.79,2.7.88,5.37,1.86,8,2.9,21.15,8.26,26.11,15.5,24.45,37.92C38.7,764,35.87,796.81,33,829.61c-.47,5.33-2.06,10.58-3.36,15.81-6.5,26.25-22,41.88-49.59,47.15-49.41,9.44-98.6,19.72-149.21,19.82-6.81,0-13.65.5-20.42,0-23.53-1.78-37.25-11.71-42.8-34.63-5.65-23.39-8.46-47.46-12.86-71.16-3.95-21.2-8.47-42.3-12.5-63.5-1.3-6.81-4.78-9.5-11.75-9.12-22.12,1.22-44.26,1.87-66.37,3.11-25.11,1.4-39.31-6.08-46.73-30.2-7.14-23.22-10.75-47.5-15.88-71.36-.66-3-.47-6.5-1.89-9.11s-4.25-5.83-6.6-5.94c-19-.87-38-1.06-57-1.5-6.69-.15-10.93,2.79-13.9,9-9.32,19.47-19.55,38.5-28.56,58.1-7.64,16.63-20.69,25.2-38.07,25.6-45.69,1.06-91.39,1.3-137.09,1.3-11.91,0-17.62-6.28-18.6-18-.87-10.47-1.59-21-1.64-31.47-.1-22.34,8.82-33.46,30.85-36.47,27-3.68,54.11-6.55,81.26-8.84,10.23-.87,15.77-5,19.18-14.5,3.73-10.39,8.66-20.37,13.6-30.27,4.65-9.35,12.54-14.56,23.08-15.1C-501.81,556.72-469.78,555.19-441.37,553.79Z" />
        <path class="cls-2"
            d="M372.08,847.75c-.79,20.77-9,36.82-25.37,48.68-34.23,24.86-69,49-102.76,74.5-22.16,16.74-43.28,34.91-64.25,53.15-20.55,17.87-30.56,40.6-27.61,68.22,3.1,29,6.47,58.08,9.45,87.15.92,9,2.07,18.2,1.13,27.09-2.06,19.5-18.91,29.33-35.81,19.46-16.26-9.5-31.35-21.45-45.5-34-11.62-10.27-21.09-23-31.6-34.53-5.33-5.86-11.2-11.27-16.23-17.38-16.7-20.35-28.15-43.38-30.93-69.7-1.62-15.35,4.58-29,15.24-40.25a226.37,226.37,0,0,1,19.29-18C111.87,950,188.84,890.9,272.51,841c18.29-10.91,36.23-22.42,54.5-33.33a49.33,49.33,0,0,1,14.86-6c9.46-2,18.11,2.67,21.55,12.57C367.22,825.06,369.28,836.53,372.08,847.75Z" />
        <path class="cls-2"
            d="M174.65,749.23c2.86-14,5.23-26.15,7.88-38.26a133.66,133.66,0,0,1,4.66-17.24c5.29-14.58,15.32-19.34,29.5-13.27,15.39,6.57,30.38,14.07,45.56,21.14,3.57,1.67,7.2,3.21,11.69,5.2,1.5-3.17,2.85-5.85,4-8.59,5.86-13.54,11.41-27.22,17.63-40.59a69.4,69.4,0,0,1,10.08-15.69c11.5-13.41,24.5-14.44,37.84-3.09,21.5,18.29,41,38.44,56.75,62,13.46,20,11.42,33.8-11.7,50-11,7.76-21.61,3.32-25.86-9.44-.36-1.08-.43-2.38-1.1-3.2-10.7-13-21.47-26-33.66-40.74-2.5,6-4,9.16-5.19,12.5-4.66,13.41-8.88,27-13.86,40.25-8.26,22-21.13,26.46-41,14.24-11.6-7.12-22.75-15-34.29-22.22-4.22-2.64-9-4.41-14.93-7.25-1.23,8.16-2,14.84-3.28,21.42-2.6,13.36-4.48,27-8.44,39.91-6.19,20.22-21.29,24.53-38.11,11.57-11.46-8.83-22.44-18.28-33.65-27.44-2.12-1.72-4.34-3.33-7.76-5.94-3.12,20.11-4.42,38.77-3.26,57.77A61.1,61.1,0,0,1,120.73,857c-1.72,4.5-8,9.28-12.91,10.24-21.22,4.15-34-6-33.84-27.62.24-36.89,1.36-73.79,3-110.65.87-19.67,12.08-26.33,30.7-20.38,21.12,6.73,40.45,16.44,56.56,32C167.08,743.29,170.27,745.61,174.65,749.23Z" />
        <path class="cls-2"
            d="M618,1067.19c19.35,2.55,39,3.69,58,8,35.09,7.93,50.79,30.52,48.08,66.37-1.58,20.93-3.75,41.82-5.71,62.73C717,1218,709.53,1227,696.72,1231a167.25,167.25,0,0,1-29,6.41c-36.05,4.39-72.16,8.25-108.26,12.17a92.12,92.12,0,0,1-13.6.17c-13.78-.53-24.29-7.39-27.09-20.5a342.71,342.71,0,0,1-6.58-53.76c-.54-10.26,7.94-17.87,19.61-18.81a215,215,0,0,1,34.78.46c23.18,1.91,46.31,4.47,69.44,7,5.28.59,8.3-.6,8.47-6.31a19.73,19.73,0,0,1,.35-2.53c3.4-22.47,2.52-24.06-19.21-28.87-10.46-2.32-21.43-2.72-31.59-5.87a153.64,153.64,0,0,1-32.28-14.23c-3.38-2-5.5-9.35-5.07-14,.86-9.59,13.07-19.94,22.84-21.14,5.07-.61,10.17-1.16,15.26-1.31,7.65-.22,15.31-.06,23-.06Z" />
        <path class="cls-2"
            d="M510.55,869.26c-22.61,1.32-45.22,2.6-67.83,4-4.24.26-8.44,1.31-12.68,1.5-16.94.73-25.63-10.43-18.77-25.76,26.75-59.87,52.6-120.25,89.5-175,10.36-15.36,26-17.81,38.62-4.23,7.5,8.12,14.41,18.16,17.72,28.57,15.26,48,25.73,97.13,32.72,147,1.93,13.72-5.54,23.83-19.69,24.77-19.74,1.33-39.64.34-59.5.34C510.63,870.07,510.58,869.66,510.55,869.26Z" />
        <path class="cls-2"
            d="M844.54,854.24c6-6,10.71-11.28,16-16,21.5-19.18,45.08-13.5,53.63,13.8,4.71,15.06,7.27,30.9,9.64,46.56,1.8,11.86-4.87,17.93-16.5,20.36-13.57,2.83-26.27.58-39.41-2.3-21.05-4.61-42.39-7.91-63.5-12.22-9.65-2-19.17-4.79-28.59-7.71a15.55,15.55,0,0,1-10.5-19.09c6-24.12,19.16-43.65,41.82-55.09,10.94-5.53,22.5-.64,28.69,10.89C839.05,839.66,841.27,846.4,844.54,854.24Z" />
        <path class="cls-2"
            d="M681,719.08c34.84,2.5,72.78,5,110.67,8.08,21.34,1.75,28.75,11.92,25.5,33.19-.34,2.25-.73,4.5-1.24,6.7-5,21.63-14.13,27.86-36,24.28q-62.6-10.22-125.14-20.57c-8.4-1.38-16.84-2.55-25.2-4.15-12.32-2.37-17.44-7.35-18.74-17.64-1.43-11.25,2.61-17.6,14.4-23.11C642.05,718,660,718.79,681,719.08Z" />
        <path class="cls-2"
            d="M721.7,829.46c-1.38,6.65-3.44,19.55-6.86,32.07-3.72,13.63-14.55,21-28,16.88A422.16,422.16,0,0,1,631.5,857c-11.5-5.36-11.43-25.19.58-34.39,19.6-15,41.7-25.5,67.1-25.91C714.44,796.43,722.34,806.25,721.7,829.46Z" />
        <path class="cls-2"
            d="M1493.17,1252.61c15.85,2.77,30.12,4.94,44.25,7.81,15.85,3.22,31.79,6.3,47.28,10.84,19,5.58,25.52,14.75,24.46,34.6-1.2,22.65-3.81,45.22-5.85,67.81-.28,3-.81,6-1.4,10.25,3.79-.77,6.5-1.1,9.07-1.87,25.86-7.66,51.94-14.66,77.45-23.35,18.19-6.2,33.29-4.64,46.07,10.5,8.77,10.38,18.66,20,26.37,31.06,5,7.22,8.25,16.27,10.1,25,3.39,15.87-3.75,30.21-18.06,38a76.8,76.8,0,0,1-19.83,7.43q-114.81,25.2-229.75,49.76a188.2,188.2,0,0,1-37.19,4c-26.61.22-39.5-17.08-31-42.26,4.31-12.78,10.67-25.12,17.74-36.66,17.79-29.05,36.53-57.5,54.82-86.26,2-3.22,3.6-6.74,6.5-12.23-15,1.22-27.88,2.14-40.74,3.35-33.63,3.16-67.2,7.06-100.89,9.42-14.9,1-30-.81-45-1.63a42.59,42.59,0,0,1-10.78-2.38c-17.31-5.64-24.29-19.54-17-36.14a133.82,133.82,0,0,1,16.21-26.88c35.75-46.64,71.88-93,108-139.39,7.32-9.41,15-18.55,22.44-27.87,1.68-2.11,3.08-4.44,6-8.72-5.93,1.5-9.54,2-12.87,3.3-28.34,10.89-56.61,22-84.94,32.89-12.71,4.9-25.4,9.87-38.29,14.28a45.17,45.17,0,0,1-15,2.32c-11.68-.18-20-8.16-20.22-19.84a69.41,69.41,0,0,1,2.7-19.27c21.1-78.11,42.07-156.27,63.9-234.18a372.9,372.9,0,0,1,21.08-56.5c11.94-25.63,31.92-43.22,59.72-50.77,23.83-6.47,47.73-12.67,71.64-18.87a56,56,0,0,1,10.93-1.63c7.42-.39,13.59,2.15,16.61,9.36s.78,13.59-4.85,18.43a264.61,264.61,0,0,1-23.34,18.5,90.81,90.81,0,0,0-29.5,33.5c-26.09,49.5-32.93,103.36-35,158.25-.3,7.72,3.19,11.37,10.34,13q34,7.75,68,15.91c11.31,2.71,22.69,5.31,33.73,8.92a80.88,80.88,0,0,1,19.77,9.7c15.08,10.16,18.5,22.89,10.3,39.08-13.5,26.58-27.44,52.93-41.44,79.25-12.54,23.56-25.44,46.92-38.12,70.4C1496.08,1245.36,1495.05,1248.27,1493.17,1252.61Z" />
        <path class="cls-2"
            d="M1686.36,553.79c35.73,2.74,67.8,4.43,99.67,7.86,26.36,2.84,34.57,12,38.53,38.38,2.19,14.6,4.17,29.23,6.14,43.86,1,7.14,4.83,10.23,12,11.92,29.28,6.88,58.4,14.41,87.5,22,24.5,6.34,38,22.72,41.57,47.39,4.53,30.9,8.64,61.86,13.24,92.75,3.59,24.12,3.6,20.48,23.09,18.23,21.62-2.5,43.11-6.44,64.5-10.69,14.43-2.87,21.2-11.63,21.87-27.58,1.13-26.9,4.92-53.69,7.68-80.52a61.4,61.4,0,0,1,1.79-9.19c4.63-17.87,14.95-23.5,32.5-17.78,2.7.88,5.37,1.85,8,2.89,21.15,8.26,26.12,15.5,24.45,37.92-2.43,32.83-5.26,65.63-8.16,98.43-.47,5.33-2.06,10.58-3.35,15.81-6.5,26.25-22,41.88-49.6,47.15-49.41,9.44-98.6,19.72-149.2,19.83-6.82,0-13.66.5-20.43,0-23.53-1.79-37.25-11.72-42.79-34.64-5.66-23.39-8.47-47.46-12.87-71.16-3.94-21.2-8.47-42.3-12.5-63.5-1.3-6.8-4.78-9.5-11.76-9.11-22.11,1.22-44.25,1.87-66.36,3.1-25.11,1.4-39.32-6.07-46.73-30.19-7.14-23.22-10.75-47.53-15.89-71.37-.65-3-.47-6.5-1.89-9.11s-4.25-5.82-6.59-5.93c-19-.88-38-1.06-57-1.5-6.7-.15-10.94,2.79-13.9,9-9.32,19.46-19.55,38.5-28.56,58.1-7.64,16.62-20.7,25.2-38.08,25.6-45.68,1.06-91.39,1.3-137.09,1.29-11.91,0-17.61-6.27-18.59-18-.88-10.46-1.6-21-1.64-31.46-.1-22.34,8.82-33.46,30.84-36.47,27-3.69,54.12-6.56,81.26-8.85,10.24-.86,15.77-5,19.19-14.5,3.72-10.38,8.66-20.37,13.59-30.27,4.66-9.35,12.54-14.56,23.09-15.1C1625.92,556.72,1658,555.19,1686.36,553.79Z" />
        <path class="cls-2"
            d="M924.08,1257.83c2.5-31.35,3.76-62.88,7.95-94a169.84,169.84,0,0,1,26.76-71.22c15.84-24,36.78-42.17,64.66-50.07,31.35-8.89,63.19-16.08,94.88-23.79,29.5-7.18,59.05-14.11,88.6-21,4.11-1,8.39-2,12.54-1.82,11.69.47,18,10.14,13.42,20.82a63.41,63.41,0,0,1-10,16.68q-41,46.69-82.65,92.8c-16,17.64-32,35.44-49.52,51.6-31.23,28.88-45.63,64.82-45.83,106.28-.24,51.33-.24,102.77,2.67,154,3.14,55.22,10.16,110.2,14.66,165.36,1.63,20,1.13,40.22,1,60.34,0,5.85-1.58,11.83-3.28,17.5-2.18,7.28-7,12.47-15,13.35s-13.93-3.16-17.45-9.86c-7.12-13.57-14-27.3-20.39-41.21-47.59-102.89-72.05-211.31-77.35-324.31-.5-10.2-1.33-20.39-2-30.59s-1.25-20.4-1.88-30.6Z" />
        <path class="cls-2"
            d="M1008.14,773.88c-.76-27.76,2.47-55,11.1-81.43,12.91-39.5,38-66.88,79.15-78.26,49.3-13.62,97.56-9.42,145,7.73,8,2.88,15.12,8.6,21.87,14,5.78,4.62,6.75,11.2,1.46,17.11-6.56,7.33-13.79,14.06-20.43,21.32-25,27.26-50.06,54.45-74.72,82-25.17,28.14-49.9,56.67-74.79,85.06-10,11.42-19.09,23.89-30.3,34-6.27,5.64-15.79,8.5-24.33,10.38-3.5.77-10.32-3.42-12.1-7.07a162,162,0,0,1-12.21-33c-3.63-15.27-5.69-30.93-7.89-46.5C1008.79,790.83,1008.71,782.32,1008.14,773.88Z" />
        <path class="cls-2"
            d="M1843.26,1126.44c-11.07,0-22.15-.16-33.21,0-10.84.19-18.37-4.58-23.3-14.09-35.92-69.31-77.72-135.5-109.56-207-4.5-10.08-11.24-19.12-16-29.11-4-8.39-9.32-9.25-16.21-4.86-16.5,10.5-33.14,20.78-49,32.1-13.63,9.7-26.11,21-39.5,31.08-15.91,12-31.31,7.45-38.85-10.94-7.18-17.52-6.27-24.38,8.26-36.8,31.5-26.91,63.52-53.23,95.44-79.66a95.5,95.5,0,0,1,12.8-8.42c13.79-8.09,27.5-7.42,39.64,2.72,9.32,7.78,18.72,16.1,25.79,25.84,28.32,39.06,56.5,78.25,83.25,118.4,19.81,29.76,37.38,61,55.7,91.74,3.4,5.7,7.77,9.21,14.24,9.09,13.58-.25,27.16-.84,40.73-1.56,7.94-.42,15.83-1.6,23.77-2,10.22-.53,15.29,3.31,18.16,13,3,10.06,6.37,20,8.93,30.2,4.11,16.34-.95,26.42-17.5,30-18.5,4-37.5,6-56.35,8-9,1-18.14.17-27.22.17Z" />
        <path class="cls-2"
            d="M1324.86,741.4c-.57,47-7.63,86.4-30.59,121.42-18.32,28-43.23,49.1-71.89,65.8-27.46,16-57.19,24.15-88.87,18.86-17-2.83-34.32-6.31-49-17-11-8-13.46-22.16-4.09-32.33,13.93-15.13,28.55-29.63,42.87-44.41,19.42-20,38.74-40.2,58.26-60.15,12-12.32,24.38-24.36,36.58-36.5,24.16-24.09,48.44-48.06,72.4-72.34,8.15-8.26,19.27-7.5,24.6,2.83a42.78,42.78,0,0,1,3.94,12.91C1321.49,716,1323.5,731.61,1324.86,741.4Z" />
        <path class="cls-2"
            d="M1592.11,1200.07c3.26-38,11.24-75.09,22-111.71,7.56-25.81,13.89-52,20.42-78.09,3.47-13.88,16.36-19.08,28.15-10.5,10.06,7.3,14.79,17.87,15.84,29.92,1.94,22.33,3.39,44.7,5.14,67,.5,6.5,1.45,13,2.07,19.47,2,21,9.75,39,24.53,54.69,27.16,28.87,47.79,62.64,68.66,96.14a46.89,46.89,0,0,1,3.82,7.59c3.07,7.82,3.63,15.62-2.18,22.5s-13.92,7.89-21.85,5.32c-23.2-7.5-46.64-14.56-69.17-23.8-22-9-43.23-20.09-64.31-31.17-7.89-4.14-14.9-10.34-21.46-16.5C1595,1222.75,1591.33,1212.14,1592.11,1200.07Z" />
        <path class="cls-2"
            d="M1317.48,521.69c23.23,5.09,47.11,9.31,68.56,21,12,6.5,16.07,20.55,8,31.5-13.2,18-27.2,35.67-42.93,51.42-13.28,13.28-29.87,8.66-36.77-8.77-8.75-22.14-16.68-44.62-24.35-67.17-4.06-11.94,1.53-21.36,13.67-24.91C1308,523.45,1312.51,522.76,1317.48,521.69Z" />
        <path class="cls-2"
            d="M958.08,960.25c-.08-25,17.54-46,38.5-46,23.47,0,45.2,23,45.07,47.78-.12,23.39-18.9,41.88-42.57,41.91C974.86,1004,958.15,986.18,958.08,960.25Z" />
        <path class="cls-2"
            d="M1771.58,821.84c-.12-12.5,4.4-19.54,12.78-23.31,13.66-6.15,27.46-12.24,41.7-16.79,4.65-1.5,11.79.53,16.14,3.42,5.5,3.67,4.85,10.45,2,16.26-6.38,13.2-12.57,26.5-19.6,39.36a48.2,48.2,0,0,1-11.53,13.35c-6.19,5.14-14,6.25-20.5,1.25C1780.71,846.27,1774.27,833.53,1771.58,821.84Z" />
    </g>
</svg>